<svg width="20" height="20" viewBox="0 0 20 20" fill="none" xmlns="http://www.w3.org/2000/svg">
<mask id="mask0_252_598" style="mask-type:alpha" maskUnits="userSpaceOnUse" x="0" y="0" width="20" height="20">
<rect width="20" height="20" fill="#D9D9D9"/>
</mask>
<g mask="url(#mask0_252_598)">
<path d="M11.0417 6.74411V3.67514C11.0417 3.45776 11.1142 3.27723 11.259 3.13353C11.4038 2.98982 11.5833 2.91797 11.7974 2.91797H16.3311C16.5452 2.91797 16.7241 2.98982 16.8678 3.13353C17.0115 3.27723 17.0834 3.45776 17.0834 3.67514V6.74411C17.0834 6.9615 17.011 7.14205 16.8661 7.28574C16.7213 7.42943 16.5418 7.50128 16.3277 7.50128H11.794C11.5799 7.50128 11.401 7.42943 11.2573 7.28574C11.1136 7.14205 11.0417 6.9615 11.0417 6.74411ZM2.91675 9.66791V3.66782C2.91675 3.45532 2.98916 3.27723 3.134 3.13353C3.27883 2.98982 3.4583 2.91797 3.67239 2.91797H8.20614C8.42024 2.91797 8.59914 2.98985 8.74283 3.13361C8.88653 3.27736 8.95837 3.45549 8.95837 3.66799V9.66807C8.95837 9.88057 8.88596 10.0587 8.74114 10.2024C8.59631 10.3461 8.41685 10.4179 8.20275 10.4179H3.66898C3.45489 10.4179 3.27601 10.346 3.13231 10.2023C2.9886 10.0585 2.91675 9.88041 2.91675 9.66791ZM11.0417 16.3346V10.3345C11.0417 10.122 11.1142 9.94389 11.259 9.8002C11.4038 9.65649 11.5833 9.58464 11.7974 9.58464H16.3311C16.5452 9.58464 16.7241 9.65652 16.8678 9.80028C17.0115 9.94403 17.0834 10.1222 17.0834 10.3347V16.3347C17.0834 16.5472 17.011 16.7253 16.8661 16.869C16.7213 17.0127 16.5418 17.0846 16.3277 17.0846H11.794C11.5799 17.0846 11.401 17.0127 11.2573 16.8689C11.1136 16.7252 11.0417 16.5471 11.0417 16.3346ZM2.91675 16.3274V13.2584C2.91675 13.0411 2.98916 12.8605 3.134 12.7168C3.27883 12.5731 3.4583 12.5013 3.67239 12.5013H8.20614C8.42024 12.5013 8.59914 12.5731 8.74283 12.7168C8.88653 12.8605 8.95837 13.0411 8.95837 13.2584V16.3274C8.95837 16.5448 8.88596 16.7253 8.74114 16.869C8.59631 17.0127 8.41685 17.0846 8.20275 17.0846H3.66898C3.45489 17.0846 3.27601 17.0127 3.13231 16.869C2.9886 16.7253 2.91675 16.5448 2.91675 16.3274Z" fill="#00A388"/>
</g>
</svg>
