<svg width="16" height="16" viewBox="0 0 16 16" fill="none" xmlns="http://www.w3.org/2000/svg">
<g opacity="0.4" clip-path="url(#clip0_46_1690)">
<path d="M10.4975 9.625C10.4545 9.6246 10.4122 9.6134 10.3747 9.59244C10.3371 9.57147 10.3054 9.54141 10.2825 9.505C10.2547 9.45762 10.2431 9.40247 10.2494 9.3479C10.2557 9.29333 10.2796 9.24229 10.3175 9.2025C10.9038 8.5899 11.2361 7.77787 11.2475 6.93C11.2344 6.11687 10.9881 5.3246 10.5378 4.64741C10.0876 3.97021 9.45226 3.43659 8.70749 3.11C8.66372 3.09058 8.62638 3.05912 8.59982 3.01928C8.57326 2.97944 8.55858 2.93287 8.55749 2.885C8.55616 2.83693 8.56895 2.78953 8.59427 2.74865C8.6196 2.70777 8.65635 2.67521 8.69999 2.655C8.73499 2.6375 8.76999 2.6225 8.80499 2.6075C8.23257 2.37118 7.61927 2.24971 6.99999 2.25H1.99999C1.94775 2.24977 1.89675 2.26595 1.8542 2.29626C1.81165 2.32656 1.77969 2.36947 1.76284 2.41892C1.74599 2.46837 1.74509 2.52186 1.76028 2.57185C1.77547 2.62183 1.80597 2.66579 1.84749 2.6975L2.74499 3.395C3.13674 3.69836 3.45362 4.0876 3.6712 4.53274C3.88879 4.97788 4.00127 5.46703 3.99999 5.9625V6.875C4 7.64381 4.2287 8.39525 4.65699 9.03371C5.08529 9.67217 5.69383 10.1688 6.40518 10.4604C7.11654 10.752 7.89857 10.8255 8.65178 10.6714C9.40499 10.5173 10.0953 10.1426 10.635 9.595C10.6125 9.6025 10.59 9.6075 10.5675 9.615C10.5448 9.62199 10.5212 9.62537 10.4975 9.625ZM9.88249 8.93C9.34593 9.45478 8.62551 9.74905 7.87499 9.75C7.80868 9.75 7.7451 9.72366 7.69821 9.67678C7.65133 9.6299 7.62499 9.56631 7.62499 9.5C7.62499 9.4337 7.65133 9.37011 7.69821 9.32323C7.7451 9.27634 7.80868 9.25 7.87499 9.25C8.49545 9.25033 9.09102 9.00599 9.53249 8.57C9.58029 8.52392 9.6444 8.49864 9.7108 8.49972C9.77719 8.50079 9.84045 8.52812 9.88674 8.57573C9.93302 8.62334 9.95856 8.68735 9.95777 8.75374C9.95697 8.82014 9.9299 8.88352 9.88249 8.93ZM10.1125 7.6625C10.1994 7.427 10.2459 7.1785 10.25 6.9275C10.2524 6.86155 10.2803 6.79912 10.3279 6.7534C10.3755 6.70768 10.439 6.68226 10.505 6.6825C10.5712 6.68402 10.6342 6.7117 10.6801 6.75947C10.726 6.80725 10.7511 6.87125 10.75 6.9375C10.7444 7.24471 10.6878 7.54886 10.5825 7.8375C10.5645 7.88531 10.5324 7.92648 10.4904 7.95552C10.4484 7.98457 10.3985 8.00008 10.3475 8C10.3177 7.99989 10.2881 7.99482 10.26 7.985C10.198 7.96132 10.1479 7.91424 10.1203 7.85392C10.0927 7.7936 10.0899 7.72486 10.1125 7.6625Z" fill="white"/>
<path d="M14.2925 2.41001C14.2745 2.36291 14.2427 2.32239 14.2012 2.29381C14.1596 2.26524 14.1104 2.24996 14.06 2.25001H10.5C9.91613 2.24861 9.33855 2.37043 8.80499 2.60751C9.65029 2.95496 10.3775 3.5388 10.8994 4.28905C11.4213 5.03931 11.7157 5.92414 11.7475 6.83751C11.7496 6.8499 11.7504 6.86246 11.75 6.87501V7.00001C11.7504 7.01422 11.7496 7.02845 11.7475 7.04251C11.7053 8.00171 11.3089 8.91118 10.635 9.59501C11.3194 9.37789 11.9172 8.94908 12.3422 8.37039C12.7672 7.7917 12.9976 7.09301 13 6.37501V5.46251C12.9966 4.93909 13.1043 4.4209 13.3159 3.94213C13.5275 3.46336 13.8382 3.0349 14.2275 2.68501C14.2651 2.6513 14.2915 2.60688 14.3031 2.55771C14.3148 2.50855 14.3111 2.457 14.2925 2.41001Z" fill="white"/>
<path d="M4.29 1.74998H7.8625L7.465 1.59498L4.53 0.46248C4.45251 0.433097 4.37037 0.417856 4.2875 0.41748C4.11186 0.419089 3.94391 0.489746 3.81994 0.614182C3.69597 0.738617 3.62595 0.906835 3.625 1.08248V1.08498C3.62496 1.17232 3.64214 1.25881 3.67554 1.33951C3.70895 1.42021 3.75793 1.49353 3.81969 1.55529C3.88145 1.61705 3.95477 1.66603 4.03547 1.69944C4.11617 1.73284 4.20266 1.75002 4.29 1.74998Z" fill="white"/>
<path d="M7.99999 1.26749L9.50749 0.684988C9.31964 0.469858 9.08793 0.297426 8.82791 0.179277C8.56789 0.0611281 8.28559 0 7.99999 0C7.71439 0 7.4321 0.0611281 7.17208 0.179277C6.91206 0.297426 6.68034 0.469858 6.49249 0.684988L7.82249 1.19749L7.99999 1.26749Z" fill="white"/>
<path d="M9.25248 1.7499H11.71C11.7973 1.74994 11.8838 1.73277 11.9645 1.69936C12.0452 1.66596 12.1185 1.61697 12.1803 1.55522C12.242 1.49346 12.291 1.42013 12.3244 1.33943C12.3578 1.25873 12.375 1.17224 12.375 1.0849C12.3748 0.976873 12.3484 0.870506 12.298 0.774938C12.2476 0.67937 12.1748 0.597457 12.0858 0.536234C11.9968 0.475011 11.8942 0.436307 11.787 0.423447C11.6797 0.410587 11.5709 0.423955 11.47 0.462403L8.69498 1.5349L9.25248 1.7499Z" fill="white"/>
<path d="M7.25 12.1875V15.75C7.2502 15.8162 7.2766 15.8797 7.32344 15.9266C7.37028 15.9734 7.43376 15.9998 7.5 16H8.5C8.56624 15.9998 8.62972 15.9734 8.67656 15.9266C8.7234 15.8797 8.7498 15.8162 8.75 15.75V12.19C8.50203 12.2302 8.25121 12.2503 8 12.25C7.74868 12.2505 7.49777 12.2296 7.25 12.1875Z" fill="white"/>
<path d="M9.23499 12.5069H10.925C10.9913 12.5069 11.0549 12.5332 11.1018 12.5801C11.1486 12.627 11.175 12.6906 11.175 12.7569C11.175 12.8232 11.1486 12.8868 11.1018 12.9337C11.0549 12.9806 10.9913 13.0069 10.925 13.0069H9.25249C9.91239 13.3695 10.6614 13.538 11.4131 13.4929C12.1647 13.4478 12.8882 13.1909 13.5 12.7519C12.8855 12.3108 12.1582 12.0536 11.4031 12.0102C10.6479 11.9668 9.89596 12.1391 9.23499 12.5069Z" fill="white"/>
<path d="M4.825 13.7468C4.8252 13.6806 4.8516 13.6171 4.89844 13.5703C4.94528 13.5234 5.00876 13.497 5.075 13.4968H6.7475C6.0876 13.1342 5.33854 12.9657 4.58692 13.0108C3.8353 13.056 3.11178 13.3129 2.5 13.7518C3.11451 14.1929 3.84177 14.4501 4.59693 14.4935C5.3521 14.5369 6.10403 14.3646 6.765 13.9968H5.075C5.00876 13.9966 4.94529 13.9702 4.89845 13.9234C4.8516 13.8765 4.8252 13.8131 4.825 13.7468Z" fill="white"/>
<path d="M9.99997 10.7499C10.0003 10.734 9.99949 10.7181 9.99747 10.7024C9.38974 11.0386 8.71078 11.2255 8.0166 11.2477C7.32242 11.2698 6.63292 11.1266 6.00497 10.8299C6.08247 11.4349 7.04747 11.7499 7.99997 11.7499C8.99497 11.7499 9.99997 11.4074 9.99997 10.7499Z" fill="white"/>
</g>
<defs>
<clipPath id="clip0_46_1690">
<rect width="16" height="16" fill="white"/>
</clipPath>
</defs>
</svg>
