<svg width="24" height="24" viewBox="0 0 24 24" fill="none" xmlns="http://www.w3.org/2000/svg">
<g clip-path="url(#clip0_137_637)">
<path fill-rule="evenodd" clip-rule="evenodd" d="M12.0003 0.5C9.15149 0.501478 6.39613 1.51046 4.22687 3.34652C2.05761 5.18259 0.615903 7.72601 0.159545 10.522C-0.296814 13.318 0.261927 16.1842 1.73587 18.6082C3.20981 21.0321 5.50284 22.8558 8.20493 23.753C8.80105 23.8636 9.0256 23.4941 9.0256 23.18C9.0256 22.8658 9.01367 21.955 9.0097 20.9592C5.6714 21.6804 4.96599 19.5505 4.96599 19.5505C4.42152 18.1674 3.63464 17.8039 3.63464 17.8039C2.54571 17.065 3.71611 17.0788 3.71611 17.0788C4.92227 17.1637 5.55616 18.3097 5.55616 18.3097C6.62521 20.1333 8.36389 19.6058 9.04745 19.2976C9.15475 18.5251 9.46673 17.9995 9.8105 17.7012C7.14383 17.4008 4.34204 16.3774 4.34204 11.8054C4.32551 10.6197 4.76802 9.47305 5.57801 8.60268C5.45481 8.30236 5.04348 7.08923 5.69524 5.44143C5.69524 5.44143 6.7027 5.12136 8.9958 6.66444C10.9627 6.12962 13.0379 6.12962 15.0047 6.66444C17.2958 5.12136 18.3013 5.44143 18.3013 5.44143C18.9551 7.08528 18.5437 8.29841 18.4205 8.60268C19.2331 9.47319 19.6765 10.6218 19.6585 11.8094C19.6585 16.3912 16.8507 17.4008 14.1801 17.6952C14.6093 18.0667 14.9928 18.7918 14.9928 19.9061C14.9928 21.5026 14.9789 22.7868 14.9789 23.18C14.9789 23.4981 15.1955 23.8695 15.8035 23.753C18.5059 22.8557 20.7992 21.0317 22.2731 18.6073C23.747 16.183 24.3055 13.3163 23.8486 10.5201C23.3917 7.7238 21.9493 5.18035 19.7793 3.34461C17.6094 1.50886 14.8533 0.500541 12.0042 0.5H12.0003Z" fill="#00A388"/>
</g>
<defs>
<clipPath id="clip0_137_637">
<rect width="24" height="24" fill="white"/>
</clipPath>
</defs>
</svg>
