<svg width="21" height="20" viewBox="0 0 21 20" fill="none" xmlns="http://www.w3.org/2000/svg">
<mask id="mask0_174_2267" style="mask-type:alpha" maskUnits="userSpaceOnUse" x="0" y="0" width="21" height="20">
<rect x="0.5" width="20" height="20" fill="#D9D9D9"/>
</mask>
<g mask="url(#mask0_174_2267)">
<path d="M10.5 16.6673C10.75 16.6673 10.9898 16.6534 11.2192 16.6257C11.4481 16.5979 11.6806 16.5562 11.9167 16.5007L10.9167 15.0007H8.00004V14.1673C8.00004 13.709 8.16337 13.3168 8.49004 12.9907C8.81615 12.664 9.20837 12.5007 9.66671 12.5007H11.3334V10.0007H9.66671C9.4306 10.0007 9.23282 9.92065 9.07337 9.76065C8.91337 9.60121 8.83337 9.40343 8.83337 9.16732V7.50065H8.45837C8.09726 7.50065 7.79171 7.37898 7.54171 7.13565C7.29171 6.89287 7.16671 6.59093 7.16671 6.22982C7.16671 6.10482 7.18393 5.97982 7.21837 5.85482C7.25337 5.72982 7.3056 5.61176 7.37504 5.50065L8.66671 3.60482C7.26393 4.0076 6.10782 4.79232 5.19837 5.95898C4.28837 7.12565 3.83337 8.47287 3.83337 10.0007H4.66671V9.16732C4.66671 8.93121 4.74643 8.73315 4.90587 8.57315C5.06587 8.41371 5.26393 8.33398 5.50004 8.33398H7.16671C7.40282 8.33398 7.60087 8.41371 7.76087 8.57315C7.92032 8.73315 8.00004 8.93121 8.00004 9.16732V10.0007C8.00004 10.2368 7.92032 10.4345 7.76087 10.594C7.60087 10.754 7.40282 10.834 7.16671 10.834V11.6673C7.16671 12.1257 7.00337 12.5179 6.67671 12.844C6.3506 13.1707 5.95837 13.334 5.50004 13.334H4.72921C5.31254 14.334 6.11115 15.1395 7.12504 15.7507C8.13893 16.3618 9.26393 16.6673 10.5 16.6673ZM16.8334 12.0423C16.9445 11.7229 17.0278 11.3929 17.0834 11.0523C17.1389 10.7123 17.1667 10.3618 17.1667 10.0007C17.1667 8.4451 16.6945 7.07343 15.75 5.88565C14.8056 4.69843 13.6112 3.91732 12.1667 3.54232V5.83398C12.625 5.83398 13.0175 5.99704 13.3442 6.32315C13.6703 6.64982 13.8334 7.04232 13.8334 7.50065V9.16732C14.0973 9.16732 14.3334 9.19871 14.5417 9.26148C14.75 9.32371 14.9514 9.45204 15.1459 9.64648L16.8334 12.0423ZM10.5 17.9173C9.40282 17.9173 8.37171 17.709 7.40671 17.2923C6.44115 16.8757 5.60421 16.3132 4.89587 15.6048C4.18754 14.8965 3.62504 14.0595 3.20837 13.094C2.79171 12.129 2.58337 11.0979 2.58337 10.0007C2.58337 8.90343 2.79171 7.87204 3.20837 6.90648C3.62504 5.94148 4.18754 5.10482 4.89587 4.39648C5.60421 3.68815 6.44115 3.12565 7.40671 2.70898C8.37171 2.29232 9.40282 2.08398 10.5 2.08398C11.5973 2.08398 12.6287 2.29232 13.5942 2.70898C14.5592 3.12565 15.3959 3.68815 16.1042 4.39648C16.8125 5.10482 17.375 5.94148 17.7917 6.90648C18.2084 7.87204 18.4167 8.90343 18.4167 10.0007C18.4167 11.0979 18.2084 12.129 17.7917 13.094C17.375 14.0595 16.8125 14.8965 16.1042 15.6048C15.3959 16.3132 14.5592 16.8757 13.5942 17.2923C12.6287 17.709 11.5973 17.9173 10.5 17.9173Z" fill="#00A388"/>
</g>
</svg>
