<svg width="32" height="32" viewBox="0 0 32 32" fill="none" xmlns="http://www.w3.org/2000/svg">
<g clip-path="url(#clip0_46_1477)">
<mask id="mask0_46_1477" style="mask-type:alpha" maskUnits="userSpaceOnUse" x="0" y="0" width="32" height="32">
<path d="M32 0H0V32H32V0Z" fill="#55AF2A"/>
</mask>
<g mask="url(#mask0_46_1477)">
<path d="M4.1252 8.77698C3.91187 8.80393 3.6452 8.9106 3.51215 8.96393C3.45882 8.99032 3.45882 8.96393 3.4852 8.93698L11.1787 1.05712C11.2051 1.03074 11.232 1.03074 11.2051 1.08407C11.1517 1.21712 11.0451 1.48379 11.0187 1.69712C10.9653 2.0974 10.9653 2.68407 10.9653 3.65698V7.19046C10.9653 7.51046 10.939 8.04379 10.619 8.39017C10.2855 8.71018 9.75215 8.72365 9.43215 8.72365H6.07215C5.09868 8.72365 4.51201 8.72365 4.1252 8.77698ZM21.4372 24.9207C21.4372 25.3474 21.211 25.7336 20.8376 25.9469C20.704 26.0272 20.5176 26.0806 20.384 26.1069C20.251 26.1339 19.7575 26.1872 19.5178 26.4006C19.2511 26.6139 19.0378 26.9608 19.0378 27.3342C19.0378 27.7204 19.1978 28.0938 19.4644 28.3604C19.6969 28.5984 19.9748 28.7871 20.2817 28.9154C20.5886 29.0437 20.9182 29.1089 21.2508 29.1071C21.6777 29.1078 22.1005 29.0233 22.4943 28.8584C22.8881 28.6936 23.2451 28.4517 23.5442 28.1471C23.8461 27.844 24.0851 27.4842 24.2476 27.0884C24.41 26.6926 24.4926 26.2687 24.4907 25.8408C24.4907 24.2274 23.4105 22.7868 21.984 22.1603C21.7842 22.0536 21.4372 21.9739 21.1172 21.8942C20.8578 21.8356 20.5954 21.791 20.3312 21.7606C19.2242 21.6275 16.4643 20.7472 16.2779 18.2804C16.2779 18.2804 15.4639 22.0008 13.8375 23.0007C13.6422 23.096 13.4362 23.1676 13.2239 23.214C13.0355 23.2564 12.844 23.2831 12.6512 23.2938C9.98457 23.4538 7.17082 22.6004 5.22387 20.5872C5.22387 20.5872 3.91748 19.5071 3.22415 16.4536C3.06415 15.7069 2.75762 14.3876 2.57067 13.134C2.49096 12.6804 2.46401 12.334 2.43762 12.014C2.43762 10.7206 3.22415 9.84028 4.22401 9.70723H9.59776C10.5173 9.70723 11.0372 9.46751 11.3841 9.14751C11.8378 8.73376 11.9444 8.12014 11.9444 7.40042V1.79986C12.064 0.826386 12.9437 0 14.2232 0H14.8632C15.1169 0 15.4369 0.0269474 15.73 0.0533333C15.9304 0.0797193 16.1173 0.133053 16.4373 0.213333C18.0373 0.613614 18.3837 2.25347 18.3837 2.25347C18.3837 2.25347 21.4103 2.78681 22.9305 3.05347C24.3834 3.32014 27.9568 3.55986 28.6501 7.18653C30.2501 15.84 29.2772 24.2268 29.1969 24.2268C28.064 32.3997 21.3305 32 21.3305 32C20.1729 32.0264 19.0375 31.6804 18.0912 31.0131C17.1975 30.4269 16.731 29.6668 16.544 29.1868C16.3536 28.721 16.2541 28.2231 16.251 27.7199C16.251 25.5203 18.0373 23.7199 20.251 23.7199C20.9039 23.7199 21.4372 24.2532 21.4372 24.9067V24.9201V24.9207ZM22.2715 14.5729C22.2181 14.7065 22.1783 14.8536 22.2052 14.9333C22.2316 15.0131 22.2849 15.04 22.3248 15.0664C22.6448 15.2264 23.1781 15.3067 23.9383 15.3864C24.6984 15.4667 25.2317 15.52 25.5652 15.4667C25.6185 15.4667 25.6719 15.4397 25.7252 15.36C25.7785 15.2797 25.7516 15.1197 25.7516 14.9867C25.6719 14.2799 25.0184 13.7465 24.1516 13.6399C23.2719 13.5596 22.5381 13.9065 22.2715 14.5729Z" fill="#00A388"/>
</g>
</g>
<defs>
<clipPath id="clip0_46_1477">
<rect width="32" height="32" fill="white"/>
</clipPath>
</defs>
</svg>
