<svg width="35" height="12" viewBox="0 0 35 12" fill="none" xmlns="http://www.w3.org/2000/svg">
<path d="M0.47851 10.3293C0.649321 10.165 0.877213 10.0634 1.11938 10.0634H1.16175C1.41819 10.0634 1.65992 10.152 1.845 10.3293C2.03008 10.4811 2.12997 10.709 2.12997 10.9364C2.12997 11.1643 2.03051 11.3792 1.845 11.544C1.65992 11.7083 1.41819 11.797 1.16175 11.797C0.905753 11.797 0.649321 11.7083 0.47851 11.544C0.293429 11.3797 0.19397 11.1643 0.19397 10.9364C0.19397 10.709 0.293429 10.4811 0.47851 10.3293ZM25.7014 0.572327H34.3557V1.74898H30.7401V11.6435H29.2742V1.74941H25.701V0.572327H25.7014ZM17.9613 11.6435V0.572327H24.2675V1.74898H19.4562V5.4186H23.9397V6.59481H19.4562V10.4288H24.5806V11.6439H17.9613V11.6435ZM6.08283 2.11611C6.15419 2.62206 6.16846 3.128 6.15419 3.63438V11.6435H4.70251V0.572327H6.59527L12.8301 9.24C13.0865 9.60671 13.2573 9.84714 13.3282 9.98638H13.371C13.2883 9.44654 13.2551 8.90027 13.2716 8.35438V0.572327H14.7375V11.6435H12.9438L6.53862 2.81189C6.38181 2.59436 6.24818 2.36102 6.13992 2.11568H6.08283V2.11611Z" fill="#00A388"/>
</svg>
