<svg width="48" height="32" viewBox="0 0 48 32" fill="none" xmlns="http://www.w3.org/2000/svg">
<path d="M47.3493 14.9451C47.0158 14.6115 42.7397 9.2252 42.0178 8.33679C41.2406 7.44784 40.9076 7.61489 40.4075 7.67022C39.9074 7.72608 34.5211 8.66981 33.9099 8.72513C33.2997 8.83632 32.9108 9.05869 33.2997 9.61408C33.6327 10.1136 37.1869 15.1116 37.9641 16.2777L23.8038 19.6648L12.5865 0.840657C12.1417 0.173539 12.0311 -0.0488341 11.0315 0.00703033C10.0319 0.0623524 2.20165 0.728386 1.6468 0.728386C1.09141 0.784251 0.480703 1.00662 1.03609 2.33923C1.59148 3.67184 10.4761 22.7748 10.6985 23.3301C10.9208 23.8855 11.5869 24.7739 13.086 24.4404C14.641 24.052 19.972 22.6636 22.9154 21.8858C24.4699 24.6628 27.5798 30.3268 28.1905 31.1604C28.9683 32.2706 29.5231 32.0482 30.6898 31.7152C31.6335 31.4375 45.2389 26.5508 45.8491 26.2731C46.4604 25.9954 46.8492 25.8289 46.405 25.2181C46.0715 24.7734 42.5179 19.9425 40.6299 17.4438C41.9066 17.1108 46.5157 15.8888 47.0158 15.7223C47.5711 15.5558 47.6818 15.2775 47.3488 14.9451H47.3493ZM21.6376 20.2196C21.4705 20.2755 13.5297 22.1635 13.1413 22.2741C12.6966 22.3853 12.6966 22.33 12.6966 22.1635C12.5859 21.9965 3.25657 2.67171 3.09006 2.44988C2.97887 2.22751 2.97887 2.00513 3.09006 2.00513C3.20125 2.00513 10.5873 1.33964 10.8097 1.33964C11.0868 1.33964 11.0315 1.3955 11.1427 1.56201C11.1427 1.56201 21.5269 19.4983 21.6935 19.776C21.9158 20.0537 21.8046 20.1649 21.6381 20.2207L21.6376 20.2196ZM43.9611 24.3851C44.0718 24.6069 44.2388 24.7175 43.7941 24.8287C43.4057 24.9952 30.4116 29.3825 30.1339 29.4931C29.8562 29.6043 29.6891 29.6602 29.3561 29.1601C29.0231 28.6606 24.8029 21.3857 24.8029 21.3857L38.6301 17.7763C38.9631 17.6651 39.0743 17.6097 39.2962 17.9428C39.5185 18.3316 43.8499 24.218 43.9606 24.3845L43.9611 24.3851ZM44.8495 14.6115C44.5165 14.6668 39.4627 15.9441 39.4627 15.9441L35.2978 10.2796C35.1871 10.1131 35.076 9.94656 35.3537 9.89123C35.6313 9.83537 40.3516 9.00229 40.5734 8.94696C40.7958 8.89164 40.9623 8.83578 41.24 9.22466C41.5177 9.55767 45.0713 14.1114 45.2379 14.2779C45.4049 14.4445 45.1825 14.5556 44.8495 14.611V14.6115Z" fill="#00A388"/>
</svg>
