<svg width="25" height="25" viewBox="0 0 25 25" fill="none" xmlns="http://www.w3.org/2000/svg">
<path d="M18.2796 2.51157C15.8999 1.0675 13.0931 0.493214 10.3375 0.886571C7.58189 1.27993 5.04791 2.61659 3.16732 4.6688C1.28673 6.72102 0.175892 9.36181 0.0240807 12.1412C-0.12773 14.9206 0.688877 17.6667 2.33476 19.9115C3.98065 22.1564 6.35398 23.7611 9.05037 24.4522C11.7468 25.1434 14.5994 24.8782 17.1222 23.7019C19.645 22.5256 21.6819 20.5109 22.8858 18.0012C24.0897 15.4914 24.3862 12.6419 23.7246 9.9381L21.7053 10.432C22.2526 12.6686 22.0074 15.0259 21.0116 17.102C20.0158 19.1782 18.3309 20.8449 16.244 21.818C14.1571 22.7912 11.7973 23.0106 9.56677 22.4389C7.33621 21.8673 5.37288 20.5399 4.01129 18.683C2.64971 16.826 1.97411 14.5544 2.09962 12.2552C2.22513 9.95598 3.14397 7.77141 4.6996 6.07371C6.25523 4.37602 8.35138 3.27023 10.6309 2.94477C12.9104 2.61931 15.2323 3.09431 17.2008 4.28884L18.2796 2.51199V2.51157Z" fill="#00A388"/>
<path d="M21.0062 8.95558C22.1611 8.46082 22.6962 7.12351 22.2015 5.9686C21.7067 4.8137 20.3694 4.27854 19.2145 4.7733C18.0596 5.26805 17.5244 6.60536 18.0192 7.76027C18.5139 8.91517 19.8513 9.45033 21.0062 8.95558Z" fill="#00A388"/>
<path d="M14.5774 18.9875C17.7866 17.6127 19.2738 13.8965 17.8989 10.6872C16.5241 7.47795 12.8079 5.99084 9.59864 7.36568C6.38936 8.74052 4.90224 12.4567 6.27708 15.666C7.65192 18.8752 11.3681 20.3624 14.5774 18.9875Z" fill="#00A388"/>
</svg>
