<svg width="21" height="20" viewBox="0 0 21 20" fill="none" xmlns="http://www.w3.org/2000/svg">
<mask id="mask0_174_2092" style="mask-type:alpha" maskUnits="userSpaceOnUse" x="0" y="0" width="21" height="20">
<rect x="0.5" width="20" height="20" fill="#D9D9D9"/>
</mask>
<g mask="url(#mask0_174_2092)">
<path d="M4.29163 16.25C3.87496 16.25 3.52079 16.1042 3.22913 15.8125C2.93746 15.5208 2.79163 15.1667 2.79163 14.75V5.25C2.79163 4.83333 2.93746 4.47917 3.22913 4.1875C3.52079 3.89583 3.87496 3.75 4.29163 3.75H13.7708C14.2013 3.75 14.5625 3.89583 14.8541 4.1875C15.1458 4.47917 15.2916 4.83333 15.2916 5.25V9.0625L17.5625 6.79167C17.6875 6.66667 17.8263 6.63528 17.9791 6.6975C18.1319 6.76028 18.2083 6.88194 18.2083 7.0625V12.9375C18.2083 13.1181 18.1319 13.2394 17.9791 13.3017C17.8263 13.3644 17.6875 13.3333 17.5625 13.2083L15.2916 10.9375V14.75C15.2916 15.1667 15.1458 15.5208 14.8541 15.8125C14.5625 16.1042 14.2013 16.25 13.7708 16.25H4.29163Z" fill="#00A388"/>
</g>
</svg>
