<svg width="24" height="24" viewBox="0 0 24 24" fill="none" xmlns="http://www.w3.org/2000/svg">
<g clip-path="url(#clip0_3_271)">
<path d="M15.7462 14.4375C15.6817 14.4369 15.6184 14.4201 15.562 14.3887C15.5057 14.3572 15.4581 14.3121 15.4237 14.2575C15.382 14.1864 15.3646 14.1037 15.3741 14.0218C15.3836 13.94 15.4194 13.8634 15.4762 13.8038C16.3557 12.8849 16.8541 11.6668 16.8712 10.395C16.8517 9.17531 16.4822 7.98691 15.8068 6.97111C15.1313 5.95532 14.1784 5.15489 13.0612 4.665C12.9956 4.63588 12.9396 4.58868 12.8997 4.52892C12.8599 4.46916 12.8379 4.39931 12.8362 4.3275C12.8342 4.2554 12.8534 4.18429 12.8914 4.12297C12.9294 4.06166 12.9845 4.01282 13.05 3.9825C13.1025 3.95625 13.155 3.93375 13.2075 3.91125C12.3489 3.55678 11.4289 3.37457 10.5 3.375H2.99998C2.92162 3.37465 2.84513 3.39892 2.7813 3.44438C2.71747 3.48985 2.66954 3.55421 2.64426 3.62838C2.61898 3.70256 2.61764 3.7828 2.64042 3.85777C2.66321 3.93275 2.70896 3.99868 2.77123 4.04625L4.11748 5.0925C4.70511 5.54753 5.18043 6.1314 5.50681 6.79911C5.83318 7.46682 6.00191 8.20055 5.99998 8.94375V10.3125C5.99999 11.4657 6.34304 12.5929 6.98549 13.5506C7.62794 14.5083 8.54074 15.2532 9.60778 15.6906C10.6748 16.1281 11.8479 16.2382 12.9777 16.007C14.1075 15.7759 15.143 15.2139 15.9525 14.3925C15.9187 14.4038 15.885 14.4113 15.8512 14.4225C15.8172 14.433 15.7818 14.4381 15.7462 14.4375ZM14.8237 13.395C14.0189 14.1822 12.9383 14.6236 11.8125 14.625C11.713 14.625 11.6176 14.5855 11.5473 14.5152C11.477 14.4448 11.4375 14.3495 11.4375 14.25C11.4375 14.1505 11.477 14.0552 11.5473 13.9848C11.6176 13.9145 11.713 13.875 11.8125 13.875C12.7432 13.8755 13.6365 13.509 14.2987 12.855C14.3704 12.7859 14.4666 12.748 14.5662 12.7496C14.6658 12.7512 14.7607 12.7922 14.8301 12.8636C14.8995 12.935 14.9378 13.031 14.9367 13.1306C14.9355 13.2302 14.8949 13.3253 14.8237 13.395ZM15.1687 11.4938C15.2991 11.1405 15.3689 10.7678 15.375 10.3913C15.3786 10.2923 15.4205 10.1987 15.4919 10.1301C15.5632 10.0615 15.6585 10.0234 15.7575 10.0238C15.8568 10.026 15.9513 10.0675 16.0201 10.1392C16.089 10.2109 16.1267 10.3069 16.125 10.4063C16.1167 10.8671 16.0317 11.3233 15.8737 11.7563C15.8468 11.828 15.7986 11.8897 15.7356 11.9333C15.6726 11.9768 15.5978 12.0001 15.5212 12C15.4765 11.9998 15.4322 11.9922 15.39 11.9775C15.297 11.942 15.2218 11.8714 15.1804 11.7809C15.139 11.6904 15.1348 11.5873 15.1687 11.4938Z" fill="#00A388"/>
<path d="M21.4388 3.615C21.4118 3.54435 21.364 3.48357 21.3018 3.4407C21.2395 3.39784 21.1656 3.37493 21.09 3.375H15.75C14.8742 3.37289 14.0079 3.55563 13.2075 3.91125C14.4755 4.43243 15.5662 5.30819 16.3491 6.43357C17.1319 7.55894 17.5736 8.8862 17.6213 10.2563C17.6244 10.2748 17.6256 10.2937 17.625 10.3125V10.5C17.6256 10.5213 17.6244 10.5427 17.6213 10.5638C17.558 12.0025 16.9634 13.3668 15.9525 14.3925C16.9791 14.0668 17.8758 13.4236 18.5133 12.5556C19.1509 11.6875 19.4964 10.6395 19.5 9.5625V8.19375C19.495 7.40861 19.6565 6.63133 19.9739 5.91318C20.2913 5.19503 20.7573 4.55234 21.3413 4.0275C21.3977 3.97694 21.4373 3.9103 21.4548 3.83655C21.4722 3.7628 21.4666 3.68549 21.4388 3.615Z" fill="#00A388"/>
<path d="M6.435 2.625H11.7938L11.1975 2.3925L6.795 0.693751C6.67876 0.649676 6.55556 0.626814 6.43125 0.626251C6.16779 0.628664 5.91586 0.73465 5.72991 0.921303C5.54396 1.10796 5.43892 1.36028 5.4375 1.62375V1.6275C5.43744 1.75851 5.4632 1.88825 5.51331 2.0093C5.56342 2.13035 5.63689 2.24033 5.72953 2.33297C5.82217 2.42561 5.93216 2.49908 6.0532 2.54919C6.17425 2.5993 6.30399 2.62506 6.435 2.625Z" fill="#00A388"/>
<path d="M12 1.90125L14.2613 1.0275C13.9795 0.704803 13.6319 0.446154 13.2419 0.268931C12.8519 0.0917074 12.4284 1.52588e-05 12 1.52588e-05C11.5716 1.52588e-05 11.1482 0.0917074 10.7581 0.268931C10.3681 0.446154 10.0205 0.704803 9.73877 1.0275L11.7338 1.79625L12 1.90125Z" fill="#00A388"/>
<path d="M13.8787 2.62499H17.565C17.696 2.62505 17.8257 2.59929 17.9468 2.54918C18.0678 2.49907 18.1778 2.4256 18.2704 2.33296C18.3631 2.24032 18.4366 2.13034 18.4867 2.00929C18.5368 1.88824 18.5625 1.7585 18.5625 1.62749C18.5622 1.46545 18.5225 1.3059 18.447 1.16254C18.3714 1.01919 18.2622 0.896323 18.1287 0.804488C17.9952 0.712654 17.8414 0.654598 17.6805 0.635308C17.5196 0.616018 17.3564 0.63607 17.205 0.693742L13.0425 2.30249L13.8787 2.62499Z" fill="#00A388"/>
<path d="M10.875 18.2812V23.625C10.8753 23.7244 10.9149 23.8196 10.9852 23.8898C11.0554 23.9601 11.1506 23.9997 11.25 24H12.75C12.8494 23.9997 12.9446 23.9601 13.0148 23.8898C13.0851 23.8196 13.1247 23.7244 13.125 23.625V18.285C12.753 18.3454 12.3768 18.3755 12 18.375C11.623 18.3758 11.2467 18.3444 10.875 18.2812Z" fill="#00A388"/>
<path d="M13.8525 18.7604H16.3875C16.487 18.7604 16.5824 18.7999 16.6527 18.8702C16.723 18.9405 16.7625 19.0359 16.7625 19.1354C16.7625 19.2348 16.723 19.3302 16.6527 19.4005C16.5824 19.4709 16.487 19.5104 16.3875 19.5104H13.8788C14.8686 20.0543 15.9922 20.3071 17.1197 20.2394C18.2471 20.1717 19.3324 19.7863 20.25 19.1279C19.3283 18.4663 18.2374 18.0804 17.1046 18.0154C15.9719 17.9503 14.844 18.2087 13.8525 18.7604Z" fill="#00A388"/>
<path d="M7.2375 20.6201C7.2378 20.5207 7.2774 20.4255 7.34766 20.3553C7.41792 20.285 7.51313 20.2454 7.6125 20.2451H10.1213C9.13139 19.7012 8.00782 19.4484 6.88038 19.5161C5.75294 19.5838 4.66767 19.9691 3.75 20.6276C4.67176 21.2892 5.76265 21.675 6.8954 21.7401C8.02814 21.8051 9.15604 21.5468 10.1475 20.9951H7.6125C7.51314 20.9948 7.41793 20.9552 7.34767 20.8849C7.27741 20.8147 7.2378 20.7195 7.2375 20.6201Z" fill="#00A388"/>
<path d="M14.9999 16.125C15.0005 16.1012 14.9992 16.0774 14.9962 16.0537C14.0846 16.558 13.0662 16.8384 12.0249 16.8716C10.9836 16.9049 9.94937 16.6901 9.00745 16.245C9.1237 17.1525 10.5712 17.625 11.9999 17.625C13.4924 17.625 14.9999 17.1112 14.9999 16.125Z" fill="#00A388"/>
</g>
<defs>
<clipPath id="clip0_3_271">
<rect width="24" height="24" fill="white"/>
</clipPath>
</defs>
</svg>
