<svg width="24" height="24" viewBox="0 0 24 24" fill="none" xmlns="http://www.w3.org/2000/svg">
<mask id="mask0_3_285" style="mask-type:alpha" maskUnits="userSpaceOnUse" x="0" y="0" width="24" height="24">
<rect width="24" height="24" fill="#D9D9D9"/>
</mask>
<g mask="url(#mask0_3_285)">
<path d="M13.2443 21.2307C12.875 21.2307 12.6096 21.1112 12.4481 20.872C12.2866 20.6329 12.2693 20.341 12.3962 19.9961L15.7783 11.0506C15.871 10.8041 16.0439 10.593 16.2972 10.4173C16.5504 10.2417 16.8151 10.1538 17.0914 10.1538C17.3522 10.1538 17.6121 10.2421 17.8709 10.4187C18.1297 10.5952 18.3048 10.8063 18.3962 11.0519L21.7769 20.0057C21.9038 20.3506 21.8869 20.641 21.726 20.8769C21.5652 21.1128 21.2933 21.2307 20.9104 21.2307C20.7419 21.2307 20.5859 21.1756 20.4423 21.0653C20.2987 20.9551 20.1961 20.8231 20.1345 20.6695L19.3494 18.4115H14.8693L14.0719 20.6608C14.0112 20.8138 13.9016 20.9471 13.7432 21.0605C13.5848 21.174 13.4185 21.2307 13.2443 21.2307ZM15.4308 16.7961H18.7423L17.1269 12.2308H17.0462L15.4308 16.7961ZM7.51543 8.7904C7.76238 9.23798 8.02475 9.65084 8.30255 10.029C8.58037 10.4071 8.90645 10.8 9.2808 11.2077C9.96285 10.4654 10.5279 9.70706 10.976 8.9327C11.4241 8.15835 11.7987 7.33464 12.1 6.46157H2.7875C2.52627 6.46157 2.30729 6.37311 2.13055 6.1962C1.95384 6.01926 1.86548 5.80003 1.86548 5.5385C1.86548 5.27696 1.95394 5.05774 2.13085 4.88082C2.30779 4.70389 2.52702 4.61542 2.78855 4.61542H8.32698V3.69235C8.32698 3.43081 8.41544 3.21159 8.59235 3.03467C8.76929 2.85774 8.98852 2.76927 9.25005 2.76927C9.51159 2.76927 9.73081 2.85774 9.90773 3.03467C10.0847 3.21159 10.1731 3.43081 10.1731 3.69235V4.61542H15.7116C15.9731 4.61542 16.1923 4.70389 16.3692 4.88082C16.5462 5.05774 16.6346 5.27696 16.6346 5.5385C16.6346 5.80003 16.5462 6.01926 16.3692 6.1962C16.1923 6.37311 15.9731 6.46157 15.7116 6.46157H13.9472C13.6221 7.54874 13.1836 8.60726 12.6316 9.63715C12.0796 10.667 11.3973 11.6354 10.5847 12.5423L12.7923 14.8L12.1 16.6961L9.25005 13.8461L5.2866 17.8096C5.10969 17.9865 4.89238 18.075 4.63468 18.075C4.377 18.075 4.1597 17.9865 3.98278 17.8096C3.80585 17.6327 3.71738 17.4153 3.71738 17.1576C3.71738 16.9 3.80585 16.6827 3.98278 16.5057L7.9962 12.4923C7.57825 12.0205 7.19525 11.543 6.84718 11.0596C6.49909 10.5763 6.18788 10.0686 5.91353 9.53655C5.74301 9.2122 5.73628 8.92631 5.89333 8.67887C6.05038 8.43144 6.32121 8.30772 6.70583 8.30772C6.85046 8.30772 7.00233 8.35547 7.16143 8.45097C7.32051 8.54649 7.43851 8.65963 7.51543 8.7904Z" fill="#00A388"/>
</g>
</svg>
